<svg width="51" height="51" viewBox="0 0 51 51" fill="none" xmlns="http://www.w3.org/2000/svg">
<g id="help-circle 3">
<path id="Vector" d="M25.5 46.75C37.236 46.75 46.75 37.236 46.75 25.5C46.75 13.7639 37.236 4.25 25.5 4.25C13.7639 4.25 4.25 13.7639 4.25 25.5C4.25 37.236 13.7639 46.75 25.5 46.75Z" stroke="white" stroke-width="2" stroke-linecap="round" stroke-linejoin="round"/>
<path id="Vector_2" d="M19.3163 19.125C19.8158 17.7048 20.802 16.5072 22.0999 15.7444C23.3979 14.9816 24.9239 14.7027 26.4078 14.9573C27.8916 15.2118 29.2375 15.9832 30.207 17.135C31.1766 18.2868 31.7072 19.7445 31.705 21.25C31.705 25.5 25.33 27.625 25.33 27.625" stroke="white" stroke-width="2" stroke-linecap="round" stroke-linejoin="round"/>
<path id="Vector_3" d="M25.5 36.125H25.5208" stroke="white" stroke-width="2" stroke-linecap="round" stroke-linejoin="round"/>
</g>
</svg>
