<svg width="780" height="460" viewBox="0 0 780 460" xmlns="http://www.w3.org/2000/svg" fill-rule="evenodd" clip-rule="evenodd" stroke-linejoin="round" stroke-miterlimit="1.41421"><g fill-rule="nonzero"><path d="M272.468 194.248c.317-1.18 1.53-1.88 2.715-1.566 1.18.316 1.882 1.532 1.566 2.715-.32 1.184-1.533 1.885-2.717 1.566-1.182-.32-1.883-1.53-1.565-2.715" fill="#e53750"/><path d="M335.298 167.09c2.65-2.04 6.446-1.543 8.486 1.112 2.033 2.65 1.534 6.45-1.12 8.486-2.646 2.037-6.453 1.54-8.486-1.117-2.033-2.652-1.54-6.448 1.12-8.48" fill="#26bcec"/><path d="M280.366 184.37c.628-1.52 2.374-2.248 3.896-1.613 1.523.63 2.247 2.37 1.615 3.895-.63 1.52-2.375 2.245-3.898 1.613-1.525-.63-2.246-2.37-1.614-3.895" fill="#fecc38"/><path d="M304.146 170.412c1.52-1.977 4.354-2.354 6.336-.833 1.983 1.515 2.352 4.353.83 6.332-1.515 1.98-4.353 2.357-6.33.835-1.98-1.52-2.357-4.357-.836-6.335" fill="#00acb0"/><path d="M291.116 176.275c1.038-1.792 3.33-2.41 5.12-1.374 1.8 1.036 2.41 3.328 1.376 5.125-1.033 1.794-3.332 2.41-5.122 1.373-1.797-1.034-2.41-3.328-1.374-5.123M319.037 167.23c2.068-2.066 5.41-2.066 7.478 0 2.063 2.06 2.063 5.407 0 7.47-2.06 2.065-5.413 2.07-7.473 0-2.065-2.063-2.07-5.41-.005-7.47M262.95 193.577c0-1.222.992-2.213 2.218-2.215 1.22 0 2.214.993 2.215 2.218 0 1.226-.993 2.216-2.218 2.215-1.224 0-2.216-.99-2.215-2.218" fill="#233d8d"/><path d="M333.913 149.748c2.66-2.668 6.984-2.67 9.65-.004 2.657 2.662 2.657 6.976-.01 9.646-2.645 2.66-6.976 2.66-9.634-.002-2.67-2.666-2.674-6.98-.007-9.64" fill="#00acb0"/><path d="M316.61 151.084c2.032-2.654 5.828-3.16 8.484-1.122 2.65 2.032 3.15 5.83 1.115 8.486-2.028 2.653-5.835 3.158-8.487 1.118-2.65-2.036-3.154-5.832-1.113-8.482" fill="#fecc38"/><path d="M268.023 181.992c.213-1.63 1.71-2.785 3.345-2.566 1.635.213 2.785 1.71 2.57 3.344-.215 1.63-1.714 2.785-3.35 2.567-1.634-.215-2.78-1.71-2.565-3.345" fill="#00acb0"/><path d="M287.38 162.356c.958-2.303 3.596-3.4 5.905-2.445 2.307.953 3.398 3.6 2.442 5.904-.953 2.306-3.596 3.404-5.9 2.445-2.305-.956-3.405-3.6-2.447-5.904" fill="#e53750"/><path d="M276.31 171.392c.54-2 2.595-3.19 4.592-2.653 2.005.533 3.188 2.59 2.655 4.593-.533 2-2.595 3.19-4.593 2.65-2.003-.532-3.19-2.59-2.653-4.59M300.94 155.428c1.462-2.53 4.692-3.396 7.223-1.936 2.527 1.457 3.392 4.69 1.934 7.217-1.457 2.526-4.694 3.397-7.22 1.933-2.527-1.46-3.4-4.69-1.937-7.215M253.584 195.394c-.315-1.18.385-2.395 1.568-2.714 1.18-.317 2.396.386 2.714 1.57.317 1.182-.385 2.396-1.57 2.712-1.18.316-2.396-.383-2.712-1.568" fill="#26bcec"/><path d="M310.784 134.69c1.878-3.264 6.055-4.385 9.32-2.5 3.256 1.883 4.372 6.05 2.488 9.32-1.867 3.254-6.05 4.375-9.307 2.49-3.268-1.883-4.39-6.05-2.5-9.31" fill="#e53750"/><path d="M294.417 140.46c1.275-3.09 4.812-4.56 7.905-3.28 3.085 1.278 4.553 4.818 3.273 7.91-1.272 3.086-4.818 4.56-7.907 3.275-3.087-1.28-4.557-4.816-3.27-7.905" fill="#00acb0"/><path d="M255.485 182.89c-.218-1.63.93-3.132 2.566-3.344 1.637-.217 3.133.93 3.35 2.566.213 1.63-.936 3.133-2.57 3.346-1.637.216-3.13-.932-3.346-2.567" fill="#e53750"/><path d="M269.1 158.914c.33-2.473 2.593-4.215 5.07-3.89 2.475.322 4.214 2.596 3.887 5.07-.323 2.473-2.592 4.217-5.065 3.887-2.474-.324-4.22-2.593-3.892-5.066" fill="#233d8d"/><path d="M260.747 170.506c.003-2.07 1.68-3.753 3.748-3.75 2.075-.003 3.75 1.676 3.753 3.75.003 2.07-1.68 3.754-3.75 3.75-2.073.002-3.75-1.677-3.75-3.75M280.405 148.712c.756-2.824 3.652-4.495 6.475-3.74 2.817.754 4.49 3.652 3.735 6.47-.753 2.82-3.653 4.498-6.47 3.738-2.822-.756-4.5-3.65-3.74-6.468M245.006 199.573c-.61-1.06-.248-2.413.813-3.027 1.057-.61 2.413-.247 3.026.813.612 1.06.25 2.415-.813 3.026-1.06.61-2.415.25-3.027-.813" fill="#fecc38"/><path d="M284.547 126.134c.97-3.64 4.714-5.803 8.355-4.828 3.632.976 5.79 4.713 4.815 8.357-.96 3.627-4.71 5.794-8.344 4.816-3.645-.975-5.806-4.71-4.826-8.346" fill="#233d8d"/><path d="M270.23 135.942c.432-3.314 3.467-5.65 6.787-5.214 3.31.436 5.645 3.475 5.208 6.793-.43 3.312-3.474 5.652-6.79 5.21-3.313-.437-5.648-3.47-5.205-6.788" fill="#e53750"/><path d="M243.606 187.004c-.63-1.52.09-3.267 1.614-3.895 1.523-.633 3.266.088 3.896 1.61.63 1.52-.09 3.268-1.615 3.898-1.522.632-3.263-.09-3.894-1.614" fill="#233d8d"/><path d="M250.55 160.32c-.32-2.473 1.416-4.742 3.892-5.07 2.474-.33 4.742 1.417 5.067 3.892.326 2.472-1.414 4.745-3.888 5.066-2.474.326-4.748-1.413-5.07-3.888" fill="#26bcec"/><path d="M245.484 173.68c-.533-2 .65-4.06 2.65-4.593 2.003-.54 4.055.65 4.596 2.652.538 1.997-.652 4.06-2.652 4.59-2.002.54-4.058-.648-4.594-2.65M258.83 147.54c0-2.923 2.366-5.287 5.288-5.287 2.917-.002 5.282 2.364 5.283 5.283.003 2.916-2.364 5.29-5.283 5.283-2.92 0-5.29-2.36-5.286-5.28M237.802 205.83c-.863-.865-.863-2.267.002-3.134.863-.865 2.268-.865 3.134 0 .866.868.865 2.27-.002 3.135-.866.866-2.268.868-3.134 0" fill="#00acb0"/><path d="M256.988 124.66c-.006-3.767 3.05-6.827 6.82-6.827 3.762.003 6.813 3.054 6.816 6.826.01 3.752-3.052 6.815-6.815 6.81-3.773.003-6.827-3.045-6.822-6.81" fill="#26bcec"/><path d="M245.698 137.84c-.44-3.314 1.887-6.355 5.206-6.794 3.31-.436 6.352 1.896 6.79 5.213.44 3.308-1.894 6.357-5.21 6.79-3.315.434-6.355-1.893-6.786-5.21" fill="#233d8d"/><path d="M208.628 106.487c-.44-3.313 1.887-6.354 5.206-6.792 3.31-.437 6.352 1.895 6.79 5.212.44 3.31-1.894 6.358-5.21 6.79-3.315.435-6.355-1.892-6.786-5.21" fill="#00acb0"/><path d="M233.197 194.05c-1.002-1.303-.76-3.178.55-4.18 1.308-1.004 3.18-.76 4.182.55 1 1.304.757 3.18-.553 4.182-1.308 1.004-3.176.758-4.18-.55" fill="#26bcec"/><path d="M233 166.48c-.952-2.307.14-4.948 2.446-5.905 2.305-.96 4.947.14 5.9 2.447.958 2.304-.135 4.95-2.442 5.9-2.305.955-4.952-.137-5.904-2.443" fill="#fecc38"/><path d="M162.402 122.803c-.95-2.306.14-4.947 2.446-5.904 2.305-.96 4.947.14 5.9 2.446.958 2.304-.135 4.95-2.44 5.9-2.307.955-4.954-.137-5.906-2.443M173.705 370.376c-.95-2.306.14-4.947 2.446-5.904 2.306-.958 4.948.14 5.902 2.447.957 2.303-.136 4.948-2.442 5.898-2.306.956-4.953-.135-5.905-2.442" fill="#233d8d"/><path d="M231.562 180.695c-1.032-1.794-.422-4.09 1.37-5.122 1.796-1.04 4.086-.423 5.127 1.372 1.036 1.79.42 4.09-1.375 5.122-1.793 1.04-4.087.423-5.123-1.372M193.815 92.226c-1.032-1.794-.422-4.09 1.37-5.122 1.796-1.04 4.086-.422 5.127 1.372 1.037 1.79.42 4.09-1.374 5.122-1.793 1.04-4.087.423-5.123-1.372M237.69 151.992c-.757-2.824.915-5.72 3.738-6.476 2.816-.756 5.714.916 6.47 3.736.756 2.816-.916 5.72-3.736 6.47-2.82.757-5.722-.91-6.473-3.73M232.463 213.738c-1.058-.612-1.42-1.966-.81-3.028.61-1.058 1.968-1.42 3.028-.81 1.062.613 1.425 1.968.81 3.028-.612 1.06-1.964 1.424-3.027.81" fill="#e53750"/><path d="M229.987 130.367c-.98-3.636 1.18-7.383 4.822-8.358 3.633-.972 7.37 1.185 8.348 4.828.98 3.622-1.184 7.373-4.82 8.343-3.643.98-7.382-1.174-8.35-4.813" fill="#fecc38"/><path d="M222.493 146.02c-1.283-3.086.178-6.626 3.27-7.91 3.085-1.277 6.626.188 7.907 3.28 1.283 3.082-.182 6.63-3.275 7.907-3.09 1.277-6.628-.183-7.902-3.277" fill="#26bcec"/><path d="M224.967 203.552c-1.307-1-1.557-2.874-.55-4.18 1.002-1.31 2.872-1.556 4.18-.552 1.305 1 1.555 2.875.55 4.182-1.005 1.31-2.872 1.555-4.18.55" fill="#fecc38"/><path d="M217.64 176.97c-1.517-1.98-1.147-4.813.834-6.335 1.978-1.522 4.815-1.144 6.333.836 1.52 1.98 1.15 4.817-.832 6.332-1.98 1.52-4.82 1.15-6.336-.83" fill="#00acb0"/><path d="M219.93 191.074c-1.462-1.466-1.466-3.84 0-5.302 1.463-1.47 3.835-1.466 5.304-.002 1.466 1.462 1.466 3.842 0 5.303-1.464 1.468-3.84 1.467-5.304 0" fill="#233d8d"/><path d="M139.44 162.31c-1.462-1.466-1.466-3.84 0-5.302 1.463-1.47 3.835-1.466 5.304-.002 1.466 1.462 1.467 3.843 0 5.303-1.464 1.468-3.84 1.467-5.304 0" fill="#e53750"/><path d="M218.42 161.763c-1.46-2.532-.596-5.76 1.936-7.223 2.524-1.46 5.756-.593 7.216 1.934 1.46 2.524.596 5.763-1.934 7.218-2.53 1.46-5.762.6-7.218-1.93M229.353 222.758c-1.18-.317-1.88-1.53-1.565-2.715.315-1.18 1.532-1.882 2.715-1.566 1.183.318 1.884 1.532 1.565 2.716-.318 1.182-1.53 1.883-2.715 1.565" fill="#233d8d"/><path d="M205.384 142.87c-1.89-3.26-.772-7.438 2.493-9.323 3.258-1.878 7.426-.76 9.315 2.505 1.885 3.244.766 7.428-2.496 9.306-3.266 1.888-7.434.775-9.313-2.49" fill="#00acb0"/><path d="M202.195 159.928c-2.038-2.65-1.543-6.446 1.112-8.486 2.65-2.033 6.45-1.534 8.487 1.12 2.036 2.646 1.54 6.453-1.118 8.486-2.65 2.033-6.448 1.54-8.48-1.12" fill="#fecc38"/><path d="M219.475 214.86c-1.52-.628-2.247-2.374-1.613-3.896.63-1.523 2.373-2.247 3.895-1.615 1.52.628 2.246 2.374 1.614 3.897-.63 1.524-2.37 2.244-3.895 1.613" fill="#00acb0"/><path d="M205.518 191.08c-1.977-1.52-2.354-4.354-.833-6.336 1.516-1.983 4.354-2.352 6.333-.83 1.98 1.515 2.357 4.352.835 6.33-1.52 1.98-4.357 2.357-6.335.836" fill="#e53750"/><path d="M211.382 204.11c-1.792-1.038-2.41-3.33-1.374-5.12 1.035-1.8 3.327-2.41 5.124-1.376 1.794 1.033 2.41 3.332 1.37 5.122-1.033 1.797-3.326 2.41-5.12 1.374M202.336 176.19c-2.067-2.07-2.067-5.412 0-7.48 2.06-2.062 5.407-2.062 7.47 0 2.064 2.062 2.07 5.414 0 7.474-2.063 2.065-5.41 2.07-7.47.005M228.684 232.276c-1.222 0-2.213-.992-2.215-2.218-.002-1.22.992-2.214 2.216-2.215 1.226 0 2.217.993 2.215 2.218 0 1.225-.99 2.217-2.216 2.216" fill="#26bcec"/><path d="M179.117 152.358c-2.667-2.66-2.67-6.984-.004-9.65 2.662-2.657 6.976-2.657 9.646.01 2.66 2.645 2.66 6.976-.003 9.634-2.666 2.67-6.98 2.673-9.64.006" fill="#e53750"/><path d="M186.19 178.616c-2.654-2.03-3.16-5.827-1.122-8.484 2.033-2.65 5.832-3.15 8.487-1.115 2.652 2.028 3.157 5.834 1.117 8.486-2.036 2.65-5.83 3.155-8.482 1.113" fill="#00acb0"/><path d="M217.098 227.204c-1.63-.214-2.785-1.712-2.566-3.346.213-1.635 1.71-2.785 3.344-2.57 1.63.215 2.784 1.714 2.567 3.35-.215 1.634-1.71 2.78-3.345 2.565" fill="#e53750"/><path d="M222.11 251.62c-1.52.63-3.268-.09-3.896-1.614-.632-1.523.09-3.267 1.612-3.897 1.52-.63 3.267.09 3.897 1.614.632 1.524-.09 3.265-1.614 3.896" fill="#26bcec"/><path d="M197.462 207.847c-2.303-.958-3.4-3.596-2.445-5.905.952-2.307 3.598-3.398 5.903-2.442 2.305.952 3.403 3.596 2.444 5.9-.954 2.305-3.598 3.405-5.902 2.447" fill="#233d8d"/><path d="M206.498 218.915c-2-.54-3.19-2.593-2.652-4.59.533-2.005 2.59-3.188 4.593-2.656 2 .533 3.19 2.594 2.65 4.593-.533 2.003-2.59 3.19-4.592 2.652" fill="#fecc38"/><path d="M166.428 186.18c-2.53-1.463-3.396-4.693-1.935-7.224 1.456-2.527 4.688-3.392 7.216-1.934 2.526 1.457 3.397 4.694 1.933 7.22-1.46 2.527-4.69 3.4-7.215 1.937" fill="#233d8d"/><path d="M230.5 241.642c-1.18.315-2.395-.385-2.713-1.568-.317-1.18.385-2.396 1.568-2.713 1.184-.317 2.398.386 2.714 1.57.314 1.182-.385 2.397-1.57 2.712M110.52 184.442c-3.264-1.878-4.385-6.055-2.5-9.32 1.883-3.256 6.05-4.372 9.32-2.488 3.254 1.867 4.375 6.05 2.49 9.307-1.884 3.27-6.05 4.39-9.31 2.502" fill="#fecc38"/><path d="M175.566 200.81c-3.09-1.275-4.56-4.812-3.28-7.906 1.278-3.085 4.818-4.553 7.91-3.273 3.086 1.274 4.56 4.82 3.275 7.908-1.28 3.087-4.815 4.558-7.904 3.27" fill="#e53750"/><path d="M217.997 239.742c-1.63.217-3.133-.932-3.345-2.566-.217-1.635.93-3.133 2.566-3.347 1.63-.217 3.133.933 3.346 2.567.216 1.636-.93 3.13-2.567 3.345" fill="#233d8d"/><path d="M194.02 226.126c-2.473-.33-4.215-2.594-3.89-5.07.322-2.476 2.596-4.214 5.07-3.887 2.473.322 4.218 2.59 3.888 5.064-.325 2.474-2.594 4.22-5.068 3.892" fill="#26bcec"/><path d="M205.612 234.48c-2.07-.004-3.753-1.68-3.75-3.75-.003-2.073 1.676-3.748 3.75-3.75 2.07-.004 3.754 1.68 3.75 3.75.003 2.07-1.676 3.75-3.75 3.75M183.818 214.822c-2.823-.757-4.495-3.653-3.74-6.476.755-2.817 3.652-4.49 6.47-3.735 2.82.754 4.5 3.654 3.738 6.472-.755 2.82-3.65 4.5-6.468 3.74M234.68 250.22c-1.06.61-2.414.247-3.028-.813-.612-1.057-.248-2.415.813-3.027 1.06-.612 2.415-.25 3.026.813.612 1.06.25 2.415-.81 3.027" fill="#00acb0"/><path d="M161.24 210.68c-3.64-.97-5.803-4.714-4.828-8.355.976-3.632 4.713-5.79 8.357-4.816 3.627.96 5.793 4.71 4.815 8.344-.974 3.645-4.71 5.806-8.345 4.826" fill="#26bcec"/><path d="M171.05 224.996c-3.316-.432-5.65-3.467-5.216-6.787.436-3.31 3.475-5.646 6.792-5.21 3.31.43 5.652 3.475 5.21 6.79-.437 3.314-3.472 5.65-6.788 5.206" fill="#233d8d"/><path d="M99.354 251.62c-1.52.63-3.268-.09-3.896-1.614-.632-1.523.09-3.267 1.613-3.897 1.52-.63 3.268.09 3.898 1.614.63 1.524-.09 3.265-1.614 3.896" fill="#00acb0"/><path d="M121.886 232.146c-1.52.63-3.268-.09-3.896-1.613-.632-1.523.09-3.267 1.613-3.897 1.52-.63 3.267.09 3.897 1.615.63 1.525-.09 3.265-1.614 3.896M205.606 351.968c-1.52.63-3.268-.09-3.896-1.613-.632-1.524.09-3.267 1.613-3.898 1.52-.63 3.267.09 3.897 1.615.63 1.525-.09 3.265-1.614 3.896" fill="#e53750"/><path d="M195.426 244.674c-2.474.322-4.743-1.414-5.07-3.89-.33-2.475 1.417-4.743 3.89-5.067 2.474-.328 4.746 1.412 5.068 3.886.326 2.474-1.414 4.75-3.888 5.07" fill="#fecc38"/><path d="M208.785 249.743c-2 .533-4.06-.65-4.593-2.65-.54-2.003.65-4.055 2.652-4.596 1.998-.538 4.06.65 4.592 2.652.54 2-.65 4.057-2.65 4.593M182.646 236.395c-2.923 0-5.288-2.364-5.288-5.287-.002-2.917 2.365-5.282 5.283-5.283 2.918-.002 5.29 2.365 5.285 5.284 0 2.92-2.36 5.29-5.28 5.285M240.936 257.423c-.865.863-2.267.864-3.134 0-.865-.864-.864-2.27.002-3.136.866-.866 2.268-.865 3.134.002.864.866.866 2.267-.002 3.133" fill="#e53750"/><path d="M159.765 238.238c-3.767.007-6.826-3.05-6.826-6.82.002-3.762 3.053-6.812 6.825-6.815 3.752-.01 6.815 3.052 6.812 6.814.002 3.773-3.046 6.827-6.812 6.82" fill="#fecc38"/><path d="M172.944 249.528c-3.313.44-6.354-1.887-6.792-5.206-.437-3.31 1.895-6.352 5.212-6.79 3.31-.44 6.358 1.894 6.79 5.21.435 3.315-1.892 6.356-5.21 6.786" fill="#26bcec"/><path d="M229.157 262.03c-1.303 1.002-3.18.76-4.18-.55-1.005-1.308-.76-3.18.55-4.182 1.303-1.002 3.178-.758 4.18.55 1.005 1.31.76 3.178-.55 4.182" fill="#fecc38"/><path d="M147.658 286.026c-1.303 1.002-3.18.76-4.18-.55-1.005-1.308-.76-3.18.55-4.182 1.303-1.002 3.178-.758 4.18.55 1.005 1.31.76 3.178-.55 4.182" fill="#233d8d"/><path d="M201.585 262.227c-2.306.95-4.947-.14-5.904-2.446-.957-2.304.142-4.947 2.448-5.9 2.304-.957 4.95.135 5.9 2.442.955 2.305-.136 4.953-2.443 5.905" fill="#00acb0"/><path d="M140.248 217.15c-2.306.95-4.947-.14-5.904-2.447-.96-2.305.14-4.947 2.447-5.9 2.305-.958 4.95.135 5.9 2.44.956 2.307-.136 4.954-2.442 5.906M215.8 263.664c-1.794 1.032-4.09.423-5.122-1.37-1.04-1.796-.422-4.086 1.372-5.125 1.79-1.04 4.09-.424 5.122 1.372 1.04 1.793.423 4.087-1.372 5.123M187.097 257.536c-2.824.757-5.72-.915-6.476-3.738-.755-2.817.918-5.714 3.737-6.47 2.816-.757 5.72.915 6.47 3.736.758 2.82-.91 5.722-3.73 6.472M248.843 262.762c-.612 1.058-1.965 1.42-3.028.81-1.058-.61-1.42-1.967-.81-3.028.613-1.06 1.968-1.424 3.028-.81 1.06.614 1.424 1.967.81 3.028" fill="#233d8d"/><path d="M138.746 265.24c-3.637.98-7.383-1.182-8.36-4.822-.97-3.634 1.188-7.37 4.83-8.35 3.623-.98 7.374 1.185 8.344 4.82.98 3.643-1.175 7.382-4.814 8.35" fill="#26bcec"/><path d="M181.126 272.734c-3.086 1.283-6.626-.18-7.91-3.27-1.277-3.085.188-6.627 3.28-7.908 3.082-1.283 6.63.183 7.907 3.275 1.277 3.09-.183 6.63-3.277 7.904" fill="#fecc38"/><path d="M238.658 270.26c-1 1.306-2.875 1.556-4.18.55-1.31-1.003-1.557-2.873-.552-4.18 1-1.307 2.875-1.557 4.182-.55 1.31 1.003 1.555 2.87.55 4.18" fill="#00acb0"/><path d="M212.076 277.586c-1.98 1.516-4.814 1.146-6.336-.835-1.522-1.977-1.143-4.813.837-6.332 1.977-1.52 4.815-1.15 6.33.833 1.52 1.98 1.15 4.82-.83 6.336" fill="#e53750"/><path d="M166.535 334.535c-1.98 1.516-4.814 1.146-6.336-.835-1.523-1.977-1.145-4.814.835-6.333 1.978-1.52 4.816-1.15 6.33.832 1.52 1.98 1.15 4.818-.83 6.335M226.18 275.296c-1.466 1.462-3.84 1.466-5.303 0-1.468-1.464-1.465-3.835 0-5.305 1.46-1.464 3.84-1.465 5.302.002 1.467 1.463 1.466 3.838 0 5.304M196.87 276.806c-2.533 1.46-5.763.596-7.224-1.936-1.46-2.524-.593-5.755 1.933-7.215 2.524-1.46 5.763-.597 7.218 1.933 1.46 2.53.6 5.763-1.93 7.218M257.864 265.872c-.317 1.18-1.53 1.88-2.715 1.565-1.182-.314-1.884-1.53-1.567-2.714.317-1.183 1.532-1.884 2.715-1.566 1.182.32 1.884 1.53 1.566 2.715" fill="#26bcec"/><path d="M177.975 289.843c-3.26 1.888-7.437.77-9.322-2.494-1.878-3.26-.76-7.428 2.505-9.317 3.244-1.884 7.428-.764 9.305 2.497 1.89 3.265.776 7.435-2.488 9.313" fill="#e53750"/><path d="M195.034 293.03c-2.648 2.04-6.446 1.544-8.485-1.11-2.035-2.65-1.536-6.45 1.118-8.488 2.646-2.037 6.453-1.54 8.486 1.118 2.033 2.653 1.54 6.45-1.12 8.48" fill="#00acb0"/><path d="M249.966 275.75c-.627 1.52-2.374 2.247-3.896 1.613-1.523-.63-2.247-2.372-1.615-3.895.63-1.52 2.375-2.246 3.898-1.614 1.524.63 2.245 2.373 1.613 3.896" fill="#e53750"/><path d="M226.186 289.707c-1.52 1.977-4.354 2.354-6.336.834-1.982-1.516-2.35-4.354-.83-6.333 1.516-1.98 4.353-2.357 6.33-.835 1.98 1.52 2.357 4.357.836 6.335" fill="#233d8d"/><path d="M239.216 283.845c-1.038 1.79-3.33 2.41-5.122 1.374-1.797-1.036-2.408-3.328-1.374-5.126 1.032-1.794 3.33-2.41 5.122-1.372 1.797 1.034 2.41 3.328 1.374 5.123M211.295 292.89c-2.067 2.066-5.41 2.066-7.478 0-2.063-2.06-2.063-5.407 0-7.47 2.06-2.064 5.413-2.068 7.473 0 2.065 2.063 2.072 5.41.005 7.47M267.38 266.542c0 1.222-.99 2.213-2.216 2.215-1.222 0-2.215-.992-2.216-2.217 0-1.226.993-2.217 2.218-2.216 1.224.002 2.216.99 2.215 2.218" fill="#fecc38"/><path d="M171.4 310.372c-2.66 2.668-6.985 2.67-9.65.004-2.658-2.662-2.66-6.977.007-9.646 2.646-2.66 6.977-2.662 9.635.002 2.67 2.665 2.674 6.98.007 9.64" fill="#e53750"/><path d="M195.81 314.972c-2.032 2.654-5.828 3.16-8.485 1.122-2.65-2.032-3.152-5.832-1.115-8.486 2.028-2.653 5.834-3.157 8.486-1.118 2.65 2.037 3.155 5.832 1.113 8.482M262.31 278.128c-.213 1.63-1.71 2.784-3.345 2.566-1.635-.213-2.785-1.71-2.57-3.344.215-1.63 1.714-2.785 3.35-2.568 1.634.215 2.78 1.71 2.565 3.346" fill="#233d8d"/><path d="M242.952 297.764c-.958 2.303-3.596 3.4-5.904 2.445-2.308-.953-3.398-3.6-2.442-5.904.952-2.306 3.595-3.403 5.898-2.444 2.306.954 3.406 3.597 2.448 5.902" fill="#26bcec"/><path d="M254.02 288.728c-.538 2-2.592 3.19-4.59 2.653-2.005-.533-3.188-2.59-2.655-4.593.534-2 2.595-3.19 4.593-2.65 2.003.532 3.19 2.59 2.653 4.59M141.963 339.505c-.538 2-2.593 3.19-4.59 2.652-2.006-.534-3.19-2.59-2.656-4.593.535-2 2.595-3.192 4.594-2.652 2.003.534 3.19 2.59 2.654 4.593M229.392 304.692c-1.462 2.53-4.69 3.396-7.223 1.936-2.527-1.457-3.393-4.69-1.934-7.217 1.456-2.526 4.693-3.397 7.218-1.933 2.528 1.46 3.4 4.69 1.938 7.215M276.748 264.726c.315 1.18-.385 2.395-1.568 2.713-1.18.316-2.396-.387-2.714-1.57-.317-1.182.385-2.397 1.57-2.712 1.182-.316 2.396.383 2.712 1.568" fill="#00acb0"/><path d="M219.548 325.43c-1.878 3.264-6.056 4.385-9.32 2.5-3.256-1.883-4.373-6.05-2.49-9.32 1.87-3.254 6.052-4.375 9.31-2.49 3.267 1.883 4.388 6.05 2.5 9.31" fill="#26bcec"/><path d="M235.915 319.66c-1.275 3.09-4.812 4.56-7.905 3.28-3.085-1.277-4.553-4.817-3.273-7.91 1.272-3.086 4.818-4.558 7.907-3.274 3.087 1.28 4.558 4.816 3.27 7.905" fill="#233d8d"/><path d="M274.848 277.23c.216 1.63-.932 3.132-2.567 3.344-1.634.217-3.13-.93-3.346-2.566-.215-1.63.934-3.133 2.57-3.345 1.634-.216 3.13.93 3.344 2.566" fill="#26bcec"/><path d="M261.233 301.207c-.33 2.473-2.594 4.214-5.07 3.89-2.476-.323-4.214-2.597-3.888-5.07.324-2.474 2.593-4.217 5.065-3.888 2.475.324 4.22 2.593 3.893 5.066" fill="#fecc38"/><path d="M269.585 289.614c-.003 2.07-1.68 3.753-3.748 3.75-2.074.004-3.75-1.676-3.753-3.75-.002-2.07 1.68-3.754 3.75-3.75 2.073-.002 3.752 1.678 3.75 3.75M249.927 311.408c-.757 2.824-3.653 4.495-6.476 3.74-2.816-.754-4.49-3.652-3.734-6.47.753-2.82 3.653-4.498 6.47-3.738 2.822.756 4.5 3.65 3.74 6.468M285.326 260.547c.61 1.06.248 2.412-.813 3.026-1.057.612-2.414.248-3.027-.812-.612-1.06-.25-2.415.813-3.026 1.06-.61 2.414-.25 3.026.813" fill="#e53750"/><path d="M245.785 333.986c-.97 3.64-4.714 5.804-8.355 4.828-3.632-.975-5.79-4.713-4.815-8.357.96-3.627 4.71-5.793 8.344-4.816 3.644.975 5.805 4.71 4.825 8.346" fill="#fecc38"/><path d="M260.102 324.178c-.432 3.313-3.467 5.65-6.787 5.214-3.31-.436-5.645-3.476-5.21-6.793.432-3.312 3.476-5.652 6.79-5.21 3.315.437 5.65 3.47 5.207 6.788" fill="#26bcec"/><path d="M286.726 273.117c.63 1.52-.09 3.267-1.614 3.895-1.523.632-3.266-.09-3.897-1.613-.63-1.52.092-3.267 1.615-3.897 1.524-.632 3.265.09 3.896 1.614" fill="#fecc38"/><path d="M279.78 299.8c.322 2.474-1.414 4.742-3.89 5.07-2.475.33-4.743-1.418-5.067-3.89-.328-2.474 1.412-4.746 3.886-5.068 2.473-.326 4.747 1.413 5.07 3.888" fill="#00acb0"/><path d="M284.848 286.44c.533 2.002-.65 4.06-2.65 4.594-2.003.54-4.055-.65-4.596-2.652-.538-1.998.652-4.06 2.653-4.59 2-.54 4.057.647 4.593 2.65M271.5 312.58c0 2.923-2.364 5.287-5.287 5.287-2.916.002-5.282-2.363-5.282-5.282 0-2.916 2.366-5.29 5.284-5.284 2.92 0 5.29 2.362 5.287 5.28M292.53 254.29c.862.865.863 2.267-.002 3.134-.864.864-2.27.864-3.135 0-.866-.868-.865-2.27.002-3.136.867-.864 2.268-.866 3.134.002" fill="#233d8d"/><path d="M273.344 335.46c.006 3.767-3.05 6.826-6.82 6.826-3.762-.003-6.813-3.054-6.815-6.826-.012-3.752 3.05-6.815 6.813-6.81 3.773-.003 6.827 3.044 6.82 6.81" fill="#00acb0"/><path d="M284.634 322.282c.44 3.313-1.887 6.354-5.206 6.793-3.31.436-6.352-1.896-6.79-5.213-.44-3.31 1.894-6.358 5.21-6.79 3.315-.435 6.356 1.892 6.786 5.21" fill="#fecc38"/><path d="M297.135 266.07c1.002 1.303.76 3.18-.55 4.18-1.308 1.005-3.18.76-4.182-.55-1.002-1.304-.758-3.18.552-4.182 1.308-1.004 3.176-.758 4.18.55" fill="#00acb0"/><path d="M297.333 293.64c.95 2.307-.14 4.948-2.446 5.905-2.305.96-4.947-.14-5.9-2.447-.958-2.304.135-4.948 2.44-5.9 2.307-.954 4.954.137 5.906 2.443" fill="#e53750"/><path d="M298.77 279.425c1.033 1.795.422 4.09-1.37 5.122-1.796 1.04-4.086.423-5.126-1.37-1.037-1.792-.422-4.092 1.373-5.123 1.793-1.04 4.087-.424 5.123 1.37M292.643 308.128c.756 2.824-.916 5.72-3.74 6.477-2.815.755-5.713-.917-6.47-3.737-.755-2.816.917-5.72 3.738-6.47 2.82-.757 5.722.91 6.473 3.73" fill="#26bcec"/><path d="M300.345 329.753c.98 3.636-1.18 7.383-4.82 8.358-3.635.972-7.372-1.185-8.35-4.83-.982-3.62 1.183-7.372 4.818-8.34 3.644-.98 7.383 1.173 8.352 4.813" fill="#e53750"/><path d="M307.84 314.1c1.282 3.086-.18 6.627-3.272 7.91-3.084 1.278-6.626-.188-7.907-3.28-1.28-3.08.184-6.63 3.276-7.906 3.09-1.278 6.628.182 7.903 3.276" fill="#00acb0"/><path d="M305.366 256.568c1.306 1 1.556 2.874.55 4.18-1.003 1.31-2.873 1.556-4.18.552-1.307-1-1.556-2.875-.55-4.182 1.003-1.31 2.87-1.555 4.18-.55" fill="#e53750"/><path d="M312.693 283.15c1.516 1.98 1.146 4.814-.835 6.336-1.978 1.522-4.815 1.143-6.333-.837-1.52-1.98-1.15-4.816.833-6.33 1.98-1.52 4.818-1.15 6.335.83" fill="#233d8d"/><path d="M310.402 269.046c1.462 1.466 1.466 3.84 0 5.302-1.463 1.47-3.835 1.466-5.304.002-1.466-1.462-1.467-3.842 0-5.303 1.464-1.468 3.84-1.467 5.304 0M311.912 298.357c1.46 2.532.596 5.762-1.936 7.223-2.524 1.46-5.756.593-7.216-1.934-1.46-2.524-.596-5.763 1.934-7.218 2.53-1.46 5.762-.6 7.218 1.93" fill="#fecc38"/><path d="M324.95 317.25c1.887 3.26.77 7.438-2.495 9.322-3.26 1.878-7.426.762-9.315-2.504-1.885-3.245-.765-7.428 2.496-9.306 3.266-1.89 7.435-.776 9.313 2.49" fill="#233d8d"/><path d="M328.136 300.192c2.04 2.65 1.543 6.446-1.112 8.486-2.65 2.033-6.45 1.535-8.486-1.12-2.037-2.645-1.54-6.453 1.117-8.485 2.653-2.033 6.45-1.54 8.48 1.12" fill="#e53750"/><path d="M324.814 269.04c1.977 1.52 2.354 4.353.833 6.336-1.516 1.983-4.354 2.35-6.333.832-1.98-1.517-2.357-4.356-.835-6.332 1.518-1.98 4.356-2.358 6.334-.837" fill="#26bcec"/><path d="M327.996 283.93c2.067 2.068 2.067 5.412 0 7.48-2.06 2.062-5.407 2.062-7.47 0-2.064-2.062-2.068-5.415 0-7.474 2.063-2.066 5.41-2.07 7.47-.005" fill="#00acb0"/><path d="M345.478 298.807c2.668 2.66 2.67 6.984.004 9.65-2.662 2.658-6.976 2.658-9.646-.008-2.66-2.648-2.66-6.98.002-9.636 2.666-2.67 6.98-2.674 9.64-.007" fill="#26bcec"/><path d="M344.142 281.504c2.654 2.03 3.16 5.827 1.122 8.484-2.032 2.65-5.832 3.152-8.486 1.116-2.653-2.03-3.158-5.835-1.118-8.487 2.036-2.65 5.832-3.155 8.482-1.113" fill="#233d8d"/><path d="M289.396 202.697c.865-.863 2.267-.864 3.134 0 .865.865.864 2.27 0 3.136-.868.866-2.27.865-3.135-.002-.865-.866-.867-2.267 0-3.133" fill="#fecc38"/><path d="M301.175 198.09c1.303-1 3.18-.758 4.18.552 1.005 1.307.76 3.178-.55 4.18-1.303 1.003-3.178.76-4.18-.55-1.005-1.31-.76-3.177.55-4.18" fill="#233d8d"/><path d="M281.488 197.358c.612-1.058 1.966-1.42 3.028-.81 1.058.61 1.42 1.967.81 3.028-.613 1.06-1.968 1.424-3.028.81-1.06-.614-1.424-1.967-.81-3.028" fill="#00acb0"/><path d="M291.674 189.86c1-1.306 2.874-1.556 4.18-.55 1.31 1.003 1.556 2.873.552 4.18-1 1.306-2.875 1.556-4.182.55-1.31-1.003-1.555-2.87-.55-4.18" fill="#26bcec"/><path d="M318.256 182.534c1.98-1.516 4.814-1.146 6.336.835 1.522 1.977 1.144 4.814-.836 6.332-1.978 1.52-4.816 1.15-6.33-.833-1.52-1.98-1.15-4.82.83-6.336" fill="#fecc38"/><path d="M304.152 184.824c1.466-1.462 3.84-1.466 5.302 0 1.47 1.463 1.466 3.835.002 5.304-1.462 1.466-3.842 1.467-5.303 0-1.468-1.464-1.467-3.84 0-5.304" fill="#e53750"/><path d="M405.83 198.506h-19.823V217h20.857c1.15 0 1.725.5 1.725 1.506v4.602c0 1.117-.576 1.673-1.726 1.673h-28.012c-1.092 0-1.637-.555-1.637-1.672v-55.564c0-1.06.545-1.59 1.637-1.59h27.754c1.15 0 1.724.53 1.724 1.59v4.603c0 1.116-.575 1.673-1.724 1.673h-20.6v17.155h19.824c1.034 0 1.552.558 1.552 1.673v4.184c0 1.117-.518 1.674-1.552 1.674M440.192 208.882c-.706 0-1.266-.34-1.676-1.02l-13.39-25.925v41.17c0 1.117-.517 1.674-1.55 1.674h-5.517c-1.094 0-1.64-.556-1.64-1.672v-55.564c0-1.06.546-1.59 1.64-1.59h5.343c.976 0 1.638.33 1.982.99l14.742 28.542 14.822-28.528c.344-.67.975-1.004 1.895-1.004h5.344c1.09 0 1.637.53 1.637 1.59v55.564c0 1.116-.547 1.673-1.638 1.673h-5.518c-1.034 0-1.55-.555-1.55-1.67v-41.063l-13.255 25.88c-.294.637-.853.955-1.675.955M498.31 208.882c-.707 0-1.266-.34-1.677-1.02l-13.388-25.925v41.17c0 1.117-.518 1.674-1.552 1.674h-5.517c-1.092 0-1.637-.556-1.637-1.672v-55.564c0-1.06.544-1.59 1.636-1.59h5.345c.976 0 1.638.33 1.983.99l14.74 28.542 14.823-28.528c.345-.67.976-1.004 1.896-1.004h5.344c1.09 0 1.638.53 1.638 1.59v55.564c0 1.116-.547 1.673-1.638 1.673h-5.517c-1.035 0-1.55-.555-1.55-1.67v-41.063l-13.256 25.88c-.294.637-.852.955-1.675.955M544.172 202.773h15.17l-7.5-28.033h-.17l-7.5 28.033zm3.535-36.82h7.5c1.09 0 1.81.56 2.153 1.674l16.72 55.396c.174.502.13.92-.128 1.256-.26.334-.646.5-1.163.5h-5.948c-.92 0-1.552-.5-1.897-1.506l-3.706-12.886h-19.232l-3.67 12.894c-.235 1-.887 1.5-1.954 1.5h-6.132c-1.236 0-1.71-.61-1.422-1.832l16.723-55.396c.344-1.067 1.062-1.6 2.154-1.6M598.757 225.618c-6.667 0-11.594-1.645-14.782-4.937-3.19-3.29-4.784-8.284-4.784-14.978v-38.158c0-1.06.545-1.59 1.638-1.59h5.518c1.147 0 1.722.53 1.722 1.59v37.405c0 4.35.833 7.572 2.5 9.664 1.666 2.092 4.395 3.138 8.188 3.138 3.793 0 6.52-1.046 8.188-3.138 1.667-2.092 2.5-5.314 2.5-9.665v-37.406c0-1.06.544-1.59 1.638-1.59h5.6c1.092 0 1.64.53 1.64 1.59v38.158c0 13.278-6.523 19.916-19.566 19.916M659.796 209.886c0 5.188-1.725 9.08-5.172 11.673-3.448 2.594-8.274 3.89-14.48 3.89-5.746 0-10.256-.642-13.532-1.924-1.09-.502-1.55-1.172-1.38-2.01l1.21-4.266c.285-1.172.974-1.534 2.067-1.088 3.1 1.117 6.722 1.674 10.858 1.674 7.642 0 11.464-2.707 11.464-8.123 0-2.455-.848-4.494-2.542-6.112-1.694-1.618-4.406-3.43-8.138-5.443l-5.418-3.154c-1.45-.845-2.908-1.978-4.373-3.4-1.464-1.424-2.556-3.07-3.274-4.938-.72-1.87-1.077-3.975-1.077-6.318 0-10.153 6.118-15.23 18.357-15.23 4.77 0 8.734.586 11.895 1.757 1.148.448 1.607 1.117 1.38 2.01l-1.207 4.183c-.288 1.06-1.007 1.395-2.156 1.004-2.587-.836-5.66-1.254-9.223-1.254-3.564 0-6.134.602-7.714 1.807-1.58 1.204-2.37 3.15-2.37 5.836 0 1.232.227 2.367.684 3.403.455 1.035 1.253 2.03 2.395 2.98 1.14.953 2.153 1.69 3.036 2.212.883.523 2.21 1.306 3.98 2.352 1.963 1.16 3.497 2.068 4.603 2.72 1.105.655 2.407 1.565 3.905 2.734 1.497 1.17 2.62 2.31 3.37 3.423.748 1.115 1.41 2.506 1.986 4.175.578 1.672.866 3.48.866 5.428M398.555 285.96c2.65 0 5.304-.56 7.955-1.675.974-.335 1.623.056 1.948 1.17l1.38 4.102c.215.725-.217 1.367-1.3 1.924-2.813 1.564-6.574 2.344-11.28 2.344-7.416 0-12.948-2.397-16.6-7.196-3.654-4.797-5.48-12.47-5.48-23.012 0-10.487 1.798-18.144 5.398-22.97 3.598-4.825 9.05-7.24 16.356-7.24 4.22 0 7.9.754 11.04 2.26 1.135.503 1.568 1.145 1.298 1.925l-1.3 4.1c-.324 1.062-.973 1.424-1.947 1.09-2.382-1.005-4.98-1.507-7.792-1.507-5.086 0-8.766 1.703-11.038 5.105-2.274 3.403-3.41 9.15-3.41 17.238 0 8.09 1.164 13.836 3.49 17.24 2.327 3.402 6.09 5.103 11.283 5.103M423.897 280.855c1.975 3.514 5.072 5.27 9.293 5.27 4.222 0 7.318-1.756 9.295-5.27 1.974-3.515 2.963-9.232 2.963-17.155 0-7.977-.99-13.737-2.963-17.28-1.977-3.542-5.073-5.313-9.295-5.313-4.22 0-7.318 1.77-9.293 5.313-1.977 3.543-2.963 9.303-2.963 17.28 0 7.923.986 13.64 2.963 17.155m-6.25-40.167c3.49-4.854 8.67-7.28 15.543-7.28 6.873 0 12.055 2.426 15.545 7.28s5.235 12.524 5.235 23.012c0 10.49-1.745 18.132-5.235 22.928-3.49 4.8-8.7 7.197-15.625 7.197-6.818 0-11.974-2.412-15.464-7.24-3.49-4.823-5.235-12.453-5.235-22.885 0-10.488 1.747-18.158 5.236-23.012M499.05 235.75v55.647c0 1.118-.542 1.674-1.628 1.674h-5.127c-.976 0-1.654-.414-2.034-1.242l-20.673-41.85v41.42c0 1.117-.488 1.673-1.462 1.673h-5.113c-1.03 0-1.543-.555-1.543-1.673v-55.563c0-1.06.51-1.59 1.53-1.59h5.08c1.022 0 1.72.402 2.096 1.203l20.678 42.043v-41.65c0-1.064.512-1.596 1.54-1.596h5.033c1.083 0 1.625.502 1.625 1.507M545.91 235.75v55.647c0 1.118-.544 1.674-1.63 1.674h-5.127c-.976 0-1.654-.414-2.034-1.242l-20.676-41.85v41.42c0 1.117-.486 1.673-1.46 1.673h-5.114c-1.028 0-1.542-.555-1.542-1.673v-55.563c0-1.06.51-1.59 1.532-1.59h5.078c1.02 0 1.72.402 2.096 1.203l20.678 42.043v-41.65c0-1.064.513-1.596 1.54-1.596h5.034c1.082 0 1.624.502 1.624 1.507M582.135 266.796h-18.67v18.493h19.644c1.08 0 1.62.5 1.62 1.505v4.603c0 1.117-.54 1.673-1.62 1.673h-26.38c-1.032 0-1.544-.555-1.544-1.672v-55.564c0-1.06.512-1.59 1.543-1.59h26.134c1.082 0 1.625.53 1.625 1.59v4.603c0 1.116-.544 1.673-1.626 1.673h-19.4v17.155h18.67c.975 0 1.462.557 1.462 1.673v4.184c0 1.117-.487 1.674-1.462 1.674M613.1 285.96c2.65 0 5.302-.56 7.954-1.675.974-.335 1.623.056 1.947 1.17l1.38 4.102c.217.725-.216 1.367-1.297 1.924-2.814 1.564-6.575 2.344-11.283 2.344-7.414 0-12.946-2.397-16.6-7.196-3.652-4.797-5.478-12.47-5.478-23.012 0-10.487 1.8-18.144 5.398-22.97 3.598-4.825 9.05-7.24 16.356-7.24 4.22 0 7.9.754 11.04 2.26 1.136.503 1.567 1.145 1.297 1.925l-1.298 4.1c-.325 1.062-.975 1.424-1.948 1.09-2.382-1.005-4.98-1.507-7.793-1.507-5.087 0-8.766 1.703-11.038 5.105-2.274 3.403-3.41 9.15-3.41 17.238 0 8.09 1.164 13.836 3.49 17.24 2.327 3.402 6.088 5.103 11.283 5.103M628.635 240.604v-4.77c0-1.058.513-1.59 1.542-1.59h30.357c1.08 0 1.623.532 1.623 1.59v4.77c0 1.06-.542 1.59-1.623 1.59h-10.958v49.204c0 1.117-.542 1.674-1.623 1.674h-5.195c-1.028 0-1.542-.557-1.542-1.674v-49.204h-11.04c-1.028 0-1.54-.53-1.54-1.59" fill="#272350"/><path d="M587.37 153.99c0-2.314 1.876-4.19 4.19-4.19 2.313 0 4.19 1.876 4.19 4.19 0 2.314-1.877 4.19-4.19 4.19-2.314 0-4.19-1.876-4.19-4.19M601.763 153.99c0-2.314 1.876-4.19 4.19-4.19 2.314 0 4.19 1.876 4.19 4.19 0 2.314-1.876 4.19-4.19 4.19-2.314 0-4.19-1.876-4.19-4.19" fill="#e53750"/></g></svg>