<svg width="41" height="41" viewBox="0 0 41 41" fill="none" xmlns="http://www.w3.org/2000/svg">
<g id="users 1">
<path id="Vector" d="M29.0417 35.875V32.4583C29.0417 30.646 28.3217 28.9079 27.0402 27.6264C25.7587 26.3449 24.0206 25.625 22.2083 25.625H8.54166C6.72935 25.625 4.99126 26.3449 3.70977 27.6264C2.42827 28.9079 1.70833 30.646 1.70833 32.4583V35.875" stroke="white" stroke-width="2" stroke-linecap="round" stroke-linejoin="round"/>
<path id="Vector_2" d="M15.375 18.7917C19.149 18.7917 22.2083 15.7323 22.2083 11.9583C22.2083 8.18439 19.149 5.125 15.375 5.125C11.6011 5.125 8.54167 8.18439 8.54167 11.9583C8.54167 15.7323 11.6011 18.7917 15.375 18.7917Z" stroke="white" stroke-width="2" stroke-linecap="round" stroke-linejoin="round"/>
<path id="Vector_3" d="M39.2917 35.875V32.4583C39.2905 30.9443 38.7866 29.4735 37.859 28.2769C36.9314 27.0803 35.6326 26.2256 34.1667 25.8471" stroke="white" stroke-width="2" stroke-linecap="round" stroke-linejoin="round"/>
<path id="Vector_4" d="M27.3333 5.34708C28.8032 5.72343 30.106 6.57828 31.0364 7.77686C31.9667 8.97545 32.4717 10.4496 32.4717 11.9669C32.4717 13.4842 31.9667 14.9583 31.0364 16.1569C30.106 17.3555 28.8032 18.2103 27.3333 18.5867" stroke="white" stroke-width="2" stroke-linecap="round" stroke-linejoin="round"/>
</g>
</svg>
