<svg width="46" height="46" viewBox="0 0 46 46" fill="none" xmlns="http://www.w3.org/2000/svg">
<g id="user-plus 1">
<path id="Vector" d="M30.6667 40.25V36.4167C30.6667 34.3833 29.859 32.4333 28.4212 30.9955C26.9834 29.5577 25.0333 28.75 23 28.75H9.58335C7.55003 28.75 5.59998 29.5577 4.1622 30.9955C2.72442 32.4333 1.91669 34.3833 1.91669 36.4167V40.25" stroke="white" stroke-width="2" stroke-linecap="round" stroke-linejoin="round"/>
<path id="Vector_2" d="M16.2917 21.0833C20.5258 21.0833 23.9583 17.6508 23.9583 13.4167C23.9583 9.18248 20.5258 5.75 16.2917 5.75C12.0575 5.75 8.625 9.18248 8.625 13.4167C8.625 17.6508 12.0575 21.0833 16.2917 21.0833Z" stroke="white" stroke-width="2" stroke-linecap="round" stroke-linejoin="round"/>
<path id="Vector_3" d="M38.3333 15.3333V26.8333" stroke="white" stroke-width="2" stroke-linecap="round" stroke-linejoin="round"/>
<path id="Vector_4" d="M44.0833 21.0833H32.5833" stroke="white" stroke-width="2" stroke-linecap="round" stroke-linejoin="round"/>
</g>
</svg>
